<?xml version="1.0" encoding="UTF-8"?>
<svg width="2695" height="456.53" version="1.1" viewBox="0 0 2695 456.53333" xmlns="http://www.w3.org/2000/svg" xmlns:xlink="http://www.w3.org/1999/xlink"><defs><linearGradient id="linearGradient4581" x1="58.684" x2="81.35" y1="60.069" y2="67.184" gradientTransform="matrix(4.6916 0 0 4.6916 -148.69 -91.799)" gradientUnits="userSpaceOnUse"><stop stop-color="#2c9f88" offset="0"/><stop stop-color="#1e6e5f" offset="1"/></linearGradient><filter id="filter4924" color-interpolation-filters="sRGB"><feFlood flood-color="rgb(0,0,0)" flood-opacity=".49804" result="flood"/><feComposite in="flood" in2="SourceGraphic" operator="in" result="composite1"/><feGaussianBlur in="composite1" result="blur" stdDeviation="5.7"/><feOffset dx="5.7" dy="5.7" result="offset"/><feComposite in="SourceGraphic" in2="offset" result="composite2"/></filter></defs><path d="m1684.2 406.43c-43.671-2.3038-102.94-21.751-128.95-42.311l-9.1549-7.2365-11.722 10.743c-27.307 25.027-61.591 36.362-81.459 26.934-21.818-10.353-26.918-49.385-14.288-109.36 7.8735-37.386 8.0068-48.989.6262-54.483-7.0826-5.2721-21.234-5.0549-29.249.44885-14.758 10.134-30.28 33.879-41.2 63.028-4.8052 12.826-4.8984 13.77-4.4871 45.409.3983 30.663.2158 32.711-3.5804 40.169-2.9793 5.8534-6.6746 9.4884-14.479 14.243-24.862 15.146-36.265 11.866-43.505-12.512-1.5274-5.1429-2.777-15.173-2.777-22.289v-12.939l-6.887 8.7127c-15.202 19.232-42.752 36.149-67.339 41.349-14.079 2.9776-38.417 3.3675-49.58.79412-19.533-4.5032-36.71-16.66-45.672-32.324l-5.5052-9.6223-7.6996 7.0973c-25.919 23.891-62.385 36.701-104.48 36.701-28.141 0-47.199-6.3284-62.74-20.834-4.6536-4.3434-10.055-11.06-12.003-14.926-1.9484-3.8659-3.8146-7.3324-4.1475-7.7032-.33278-.37082-5.3616 3.7294-11.175 9.1117-12.632 11.695-36.582 24.042-56.777 29.271-17.43 4.5132-55.089 6.4206-69.1 3.4997-21.478-4.4774-42.358-18.45-50.496-33.791l-3.9427-7.4321-11.583 11.361c-20.037 19.653-44.94 30.112-71.689 30.11-18.093-.001-32.57-4.0441-55.412-15.473l-15.969-7.9897-10.229 8.3355c-29.374 23.937-73.522 29.059-97.95 11.364-13.491-9.773-20.63-32.306-16.15-50.979 1.768-7.3697 4.0949-11.167 11.192-18.264 12.852-12.852 21.844-15.606 50.951-15.606h22.891l2.103-29.69c1.1566-16.33 3.6776-38.728 5.602-49.775 1.9245-11.047 3.9247-22.52 4.445-25.497.87173-4.9872.25159-5.8393-7.9003-10.855-18.509-11.389-28.985-23.786-26.982-31.93 2.4753-10.067 4.5211-10.096 29.059-.40637 8.4882 3.3518 15.692 5.8349 16.008 5.5179.31622-.31696 4.4312-9.6767 9.1444-20.799 10.717-25.292 21.878-43.314 36.844-59.499 21.763-23.534 42.86-33.431 70.766-33.197 43.708.36682 66.302 18.2 68.775 54.286 1.5462 22.558-6.5999 43.795-23.659 61.679-20.747 21.752-50.456 33.838-93.015 37.843-9.726.91514-18.012 1.992-18.413 2.393-1.028 1.028-3.8563 41.394-5.7169 81.593-.86696 18.731-1.8549 35.169-2.1953 36.53-.8788 3.5109 26.265 16.813 43.086 21.116 31.65 8.0947 43.579 3.216 71.555-29.265 9.5456-11.083 11.164-14.024 12.971-23.578 3.2244-17.045 8.5793-32.258 17.366-49.338 11.008-21.397 35.033-45.913 54.376-55.487 31.014-15.351 61.769-15.79 81.951-1.1702 20.371 14.757 20.98 48.468 1.2552 69.492-10.522 11.215-26.208 19.54-67.488 35.816l-23.578 9.2963-.50812 11.267c-.63392 14.058 3.4778 21.074 16.18 27.611 7.7728 4 10.71 4.4697 27.944 4.4697 14.308 0 21.727-.84647 28.864-3.2931 13.755-4.7155 30.671-14.992 42.793-25.996 10.291-9.3422 10.52-9.7528 12.537-22.424 10.758-67.604 66.244-120.34 122.42-116.36 16.305 1.1564 27 5.4966 35.748 14.507 8.1842 8.4299 10.833 15.946 10.78 30.595-.032 8.9559-1.1078 13.688-4.8477 21.332-8.823 18.034-23.67 27.79-70.977 46.639-14.889 5.9325-28.152 11.229-29.474 11.77-3.0666 1.2545-1.4868 19.114 2.3465 26.527 6.4816 12.534 22.753 18.468 47.108 17.179 23.667-1.2521 45.565-11.149 66.46-30.036 9.6753-8.7454 9.8487-9.0742 12.985-24.613 11.149-55.244 51.046-100.23 99.131-111.77 16.054-3.8538 33.502-3.0011 40.149 1.9623 9.1551 6.8352 11.357 11.518 11.261 23.952-.1 13.025-4.1358 22.965-11.758 28.961-6.1103 4.8063-11.087 4.6178-18.33-.69435-14.488-10.626-23.412-11.034-34.641-1.5853-12.582 10.587-22.875 42.813-23.373 73.178-.2836 17.291.084 19.854 3.6804 25.637 6.1394 9.8734 17.231 14.542 34.427 14.491 10.278-.0305 15.585-.90877 20.074-3.3217 11.599-6.2342 23.791-16.656 40.044-34.226l16.315-17.638 1.37-13.429c5.9318-58.14 25.346-121.33 58.052-188.95 13.722-28.371 17.795-33.183 28.087-33.183 12.133 0 26.19 24.83 25.894 45.739-.2604 18.363-5.1515 31.09-25.378 66.037-8.939 15.444-11.215 21.163-14.425 36.24-2.0961 9.8458-3.3094 17.864-2.696 17.818.6137-.0461 4.2591-4.483 8.1014-9.8598 17.527-24.527 47.187-36.899 77.315-32.252 24.808 3.8269 40.666 15.341 46.875 34.033 4.3259 13.024 2.3408 38.98-5.4994 71.909-10.643 44.7-11.823 50.876-10.628 55.636.8712 3.4711 2.2566 4.618 5.5788 4.618 7.9212 0 15.128-5.3615 40.241-29.938 13.603-13.312 25.451-24.203 26.329-24.203 6.3925 0 7.7635 17.533 2.5506 32.618l-3.1239 9.0403 7.4474 1.8752c12.774 3.2164 12.29 3.8276 13.373-16.899 3.2429-62.032 29.435-148.88 54.503-180.72 7.4294-9.4373 18.358-17.066 24.449-17.066 5.0489 0 6.5395 8.6277 5.5813 32.31-.8975 22.184-3.7768 38.905-17.62 102.33-4.7069 21.563-11.243 98.748-8.5651 101.14.7801.69819 8.2174 2.6612 16.527 4.3622 19.716 4.0359 46.999 3.0014 60.65-2.2995 28.376-11.019 40.44-29.783 40.322-62.714-.098-27.028-5.7204-46.588-16.754-58.28-3.949-4.1845-4.9567-4.4239-13.161-3.127-10.686 1.6892-32.642-.82258-39.872-4.5611-10.413-5.3846-14.215-18.32-7.5499-25.684 7.0809-7.8245 12.523-9.2317 36.355-9.4002l22.704-.1605 3.9758-5.8482c6.8344-10.053 9.5839-23.042 8.8334-41.727-.5799-14.437-1.3511-17.994-5.3988-24.901-2.5971-4.4318-7.0829-10.044-9.9685-12.473-12.669-10.66-41.403-16.001-71.555-13.3-23.037 2.0634-34.172 5.3086-59.493 17.338-30.125 14.312-41.93 16.599-41.904 8.1176.025-8.1598 18.161-28.118 36.827-40.527 34.586-22.993 73.286-31.797 118.6-26.98 49.481 5.2598 80.879 22.169 95.187 51.263 11.21 22.795 11.534 51.853.8117 72.87-4.9304 9.6642-19.663 25.211-29.171 30.783-4.096 2.4004-7.4472 4.9642-7.4472 5.6975 0 .73329 4.4992 4.3204 9.9978 7.9714 22.566 14.983 36.629 34.664 41.631 58.263 11.466 54.093-16.935 97.888-75.207 115.97-19.488 6.0474-49.97 9.7977-70.733 8.7024zm-1148.1-39.76c3.4701-2.2256 9.4301-12.479 9.4301-16.224 0-2.9188-13.565-7.3483-22.504-7.3483-11.557 0-17.665 4.7816-17.665 13.828 0 6.4442 2.8141 10.616 8.7324 12.944 3.8794 1.5265 17.791-.49653 22.007-3.2001zm296.73-107.51c14.588-9.7666 17.952-13.286 20.902-21.869 3.3178-9.6511 1.1838-15.099-7.0406-17.972-5.9677-2.0852-7.7263-2.0453-13.317.30228-11.614 4.877-21.501 23.594-25.083 47.485l-1.2697 8.4671 6.7914-4.1141c3.7353-2.2628 12.293-7.7973 19.017-12.299zm181.29 6.7641c27.163-17.205 32.678-23.113 32.623-34.947-.033-7.3036-1.4305-9.4416-7.7346-11.838-14.947-5.683-29.778 8.9144-36.463 35.891-4.2826 17.281-4.7848 19.96-3.7408 19.96.5517 0 7.4436-4.0792 15.315-9.0649zm-355.26-102.07c16.416-5.4306 26.914-11.567 37.062-21.663 9.4859-9.4377 12.852-18.064 11.242-28.805-1.4891-9.9303-5.4218-14.575-14.055-16.601-25.153-5.9019-45.954 12.508-59.206 52.4-3.4582 10.41-6.2877 19.472-6.2877 20.137 0 2.0934 17.809-1.0232 31.245-5.4679zm1780.4 232.52c-5.8181-4.0751-9.6059-16.63-10.796-35.786l-1.0901-17.535-6.1126 7.8534c-8.3638 10.745-27.601 25.957-40.682 32.168-30.266 14.371-65.261 16.1-91.451 4.5173-11.957-5.2878-26.736-19.261-32.165-30.411-2.3302-4.7862-4.8655-8.7327-5.6339-8.77-.7679-.0375-3.5893 1.0661-6.2692 2.452-9.0372 4.6733-26.132 6.5728-41.646 4.6275l-14.343-1.7985-9.0887 8.7139c-23.809 22.828-48.879 33.256-80.105 33.322-19.809.0413-36.256-3.4589-50.837-10.82-12.025-6.0701-25.854-18.195-31.532-27.646-2.0811-3.4643-4.0392-6.6251-4.3513-7.024-.3123-.39898-5.8737 4.3971-12.359 10.658-22.638 21.855-41.337 31.036-66.019 32.413-48.042 2.6818-86.673-23.248-96.721-64.922-2.5013-10.374-2.573-47.19-.129-66.495 12.079-95.433 52.501-171.84 104.8-198.09 14.271-7.1631 25.373-9.7438 41.916-9.7438 13.038 0 15.836.58275 22.989 4.7874 20.734 12.189 23.891 38.737 8.3621 70.312-9.3786 19.069-21.983 35.358-60.731 78.482-18.179 20.233-38.261 43.166-44.626 50.963l-11.572 14.176v16.507c0 21.999 3.2902 32.748 12.994 42.452 5.8433 5.8435 9.6657 8.0025 17.121 9.6709 19.746 4.4189 44.898-4.3253 62.748-21.814 9.6881-9.4921 9.9283-9.9624 10.965-21.478 1.6845-18.721 7.3148-38.409 16.102-56.305 6.768-13.783 10.69-19.132 23.201-31.644 12.138-12.138 17.921-16.442 29.836-22.203 21.68-10.482 34.711-13.054 61.062-12.05 25.016.95287 41.348 5.3686 53.15 14.37 14.515 11.071 9.7319 14.633-22.382 16.669-26.856 1.703-41.261 5.6278-56.278 15.334-18.637 12.046-31.786 31.532-36.599 54.236-6.6953 31.587.268 54.612 20.029 66.23 7.4027 4.352 9.5064 4.7163 27.234 4.7163 16.2 0 20.538-.61213 27.674-3.9054l8.463-3.9054-9.6832-8.8499c-22.111-20.208-29.893-54.674-17.888-79.214 8.8517-18.092 24.368-29.36 45.179-32.809 20.659-3.4233 38.277 5.0719 46.879 22.604 3.4576 7.0474 4.0645 10.996 4.0898 26.613.027 17.54-1.5348 25.39-8.8344 44.373-1.1931 3.1025-.6031 3.2609 8.6077 2.3103 11.604-1.1977 25.551-7.6289 27.357-12.615.6982-1.9275 2.9405-10.578 4.9826-19.223 14.411-61.004 65.204-107.41 117.57-107.41 22.218 0 31.779 8.5134 31.502 28.049-.2596 18.295-9.2909 31.914-21.164 31.914-2.8673 0-8.2286-2.5986-13.212-6.4038-12.118-9.2529-21.554-8.247-32.668 3.4826-13.594 14.347-25.3 60.561-21.596 85.261 2.4236 16.163 17.673 26.292 39.393 26.164 17.122-.10043 26.021-5.5641 54.141-33.24l23.577-23.205 5.7193-34.885c14.135-86.213 41.099-166.67 64.56-192.64 5.0987-5.6436 7.2178-6.7508 12.921-6.7508 5.5887 0 8.2645 1.33 14.805 7.3586 7.6504 7.052 16.428 21.684 18.715 31.199 1.7019 7.0796-1.7389 23.765-7.3925 35.847-2.8445 6.0785-11.991 21.1-20.327 33.381l-15.155 22.329-2.5133 18.963c-1.3821 10.43-2.2344 19.799-1.8935 20.822.341 1.0225 3.05-2.4023 6.0203-7.6106 14.418-25.282 39.294-40.033 67.512-40.033 37.657 0 60.358 20.914 58.45 53.85-.8551 14.757-5.7834 25.083-17.623 36.923-11.478 11.478-32.316 21.811-49.757 24.675-7.5077 1.2327-12.662 2.9298-12.662 4.1692 0 1.1497 1.5967 6.7314 3.5483 12.404 8.8358 25.682 24.247 37.813 44.511 35.035 15.331-2.1014 24.638-9.2926 54.602-42.192l12.717-13.963 3.4379 4.1231c4.5469 5.4536 4.4712 16.486-.209 30.425-9.8194 29.245-35.009 55.648-64.788 67.912-13.354 5.4993-37.832 5.6439-47.706.28187-19.203-10.428-37.463-36.977-55.047-80.038-3.1383-7.6846-6.2814-14.62-6.9848-15.413-1.9487-2.1961-3.232 10.606-4.4337 44.23-.6005 16.81-1.8416 33.529-2.7576 37.152-3.9558 15.649-39.046 30.167-51.624 21.358zm-247.63-111.55c2.9698-13.028 2.336-25.728-1.4291-28.633-4.3858-3.3835-8.1654-3.6299-11.704-.76296-8.0176 6.4954-7.4873 25.535 1.12 40.222 4.2155 7.1935 4.8074 7.6012 6.8926 4.7493 1.2548-1.7159 3.5589-8.7247 5.1206-15.575zm336.9-7.5174c29.735-7.3849 47.63-25.526 42.72-43.309-2.1034-7.6178-7.4045-11.404-15.968-11.404-9.4976 0-18.489 5.2126-29.375 17.03-7.9792 8.6621-26.055 37.28-26.055 41.251 0 1.6092 15.694-.34334 28.678-3.5678zm-612.54-73.547c4.9886-7.4119 18.546-25.265 30.127-39.674 24.114-30.001 31.536-42.933 31.536-54.944 0-9.3393-2.1928-12.296-9.1191-12.296-20.111 0-48.056 46.887-59.853 100.42-1.4817 6.724-3.0883 13.994-3.5704 16.155-1.5443 6.9257 1.5849 4.1462 10.88-9.6647z" fill="#4d4d4d" stroke-width="1.7465"/><path d="m171.59 13.424c-47.895 25.594-107.31 30.89-155.76 35.095l-1.0721 219.01c.38551 4.032.51603 4.5784 1.576 9.0899 16.305 67.929 83.883 130.71 155.25 160.99 71.37-30.276 138.94-93.058 155.24-160.99 1.06-4.5116 1.1905-5.058 1.576-9.0899l-1.0721-219.01c-48.443-4.2051-107.85-9.5016-155.75-35.095z" fill="url(#linearGradient4581)" filter="url(#filter4924)" stroke-width="0"/><path d="m101.49 309.88c-8.2043-2.43-13.985-7.442-17.364-15.055-1.5587-3.5116-3.0081-4.9296-3.0081-12.396 0-7.446 1.4446-8.3238 2.9148-11.302 3.5158-7.1226 11.365-12.535 21.158-14.59 3.686-.77342 7.7855-.98345 16.018-.82078l11.064.21851.009-6.9354c.0142-12.236 2.6512-35.624 5.5734-49.417.56303-2.6576 1.0237-5.3358 1.0237-5.9517 0-.69375-1.9747-2.3031-5.1907-4.2304-6.4243-3.85-11.481-8.3334-13.733-12.177-1.3772-2.35-1.651-3.5099-1.3852-5.8679.68078-6.04 2.9548-6.2835 15.045-1.6109 4.7107 1.8206 9.2027 3.3811 9.9823 3.4677 1.2421.13824 1.8757-.98658 5.1211-9.0897 12.404-30.969 30.436-50.212 51.429-54.882 6.1115-1.3597 20.818-.98961 26.911.67718 15.763 4.3121 23.709 14.047 24.566 30.096 1.2647 23.698-14.766 43.816-41.778 52.432-9.1768 2.927-15.492 4.0462-31.336 5.553l-4.9539.47125-.79569 7.596c-.98473 9.401-2.1707 32.76-2.1798 42.934-.004 6.6324-.59144 12.898-1.6417 17.569-.27362 1.2163.89424 1.9668 9.5228 6.1213 10.71 5.1565 17.215 7.1429 25.47 7.7774 11.601.89172 17.889-3.1799 33.445-21.656 11.269-13.384 13.968-15.258 16.085-11.165 1.338 2.5873 1.3165 10.867-.0428 16.12-1.066 4.1225-4.5092 11.581-7.0402 15.249-11.171 16.193-26.756 25.959-45.004 28.202-12.109 1.4881-21.36-.61665-37.217-8.4678l-10.057-4.9797-4.2272 3.8708c-5.1727 4.7365-11.402 8.2862-19.252 10.971-5.3694 1.8363-6.8714 2.0539-15.522 2.248-7.7682.17435-10.339-.009-13.608-.97877zm20.28-19.358c1.2349-.41282 3.0411-1.488 4.0138-2.3894 1.9183-1.7779 4.7895-7.7571 4.1904-8.7265-.20332-.3292-2.073-1.2563-4.155-2.0608-5.1706-1.9981-12.155-2.1107-15.327-.24701-5.0264 2.9529-5.0364 10.51-.019 13.017 2.6458 1.3217 7.9824 1.5138 11.295.40665zm73.243-118.11c9.0806-3.0423 15.326-6.7357 21.234-12.556 4.3626-4.2986 5.2201-5.5284 6.1961-8.8856 2.0468-7.0408-.13967-13.75-5.2942-16.246-3.6249-1.7548-10.345-1.7772-14.891-.0498-8.2676 3.1414-15.154 12.121-20.3 26.47-2.2667 6.3203-4.1093 12.612-4.1093 14.03 0 1.3892 9.1837-.0894 17.165-2.7634z" fill="#fff" stroke-width=".66052"/><path d="m171.59 28.663-1.918 1.0254c-42.285 22.596-95.489 27.471-139.29 31.273l-3.7012.32031-.98828 201.98.01953.20313c.3536 3.6982.55729 4.6848 1.5156 8.7637l.002.01.002.01c15.208 63.36 77.215 120.57 142.77 148.38l1.5898.67579 1.5879-.67579c65.555-27.809 127.55-85.024 142.76-148.38l.002-.01.004-.01c.95835-4.0788 1.1601-5.0654 1.5137-8.7637l.0195-.20313-.98828-201.98-3.6992-.32031c-43.802-3.8022-96.998-8.6773-139.28-31.273zm0 9.1055c42.793 22.218 94.247 27.24 136.8 30.947l.94922 194.09c-.32821 3.4208-.37432 3.5486-1.3125 7.541-14.165 59.004-73.494 114.85-136.43 142.06-62.94-27.21-122.28-83.061-136.44-142.06-.000331-.001-.0016-.003-.002-.004-.93668-3.9859-.9825-4.1181-1.3105-7.5371l.94927-194.09c42.55-3.7069 94.013-8.7292 136.81-30.947z" color="#000000" color-rendering="auto" dominant-baseline="auto" fill="#fff" image-rendering="auto" shape-rendering="auto" solid-color="#000000" style="font-feature-settings:normal;font-variant-alternates:normal;font-variant-caps:normal;font-variant-ligatures:normal;font-variant-numeric:normal;font-variant-position:normal;isolation:auto;mix-blend-mode:normal;shape-padding:0;text-decoration-color:#000000;text-decoration-line:none;text-decoration-style:solid;text-indent:0;text-orientation:mixed;text-transform:none;white-space:normal"/></svg>
