<?xml version="1.0" encoding="UTF-8" standalone="no"?>
<svg
   xmlns:dc="http://purl.org/dc/elements/1.1/"
   xmlns:cc="http://creativecommons.org/ns#"
   xmlns:rdf="http://www.w3.org/1999/02/22-rdf-syntax-ns#"
   xmlns:svg="http://www.w3.org/2000/svg"
   xmlns="http://www.w3.org/2000/svg"
   xmlns:xlink="http://www.w3.org/1999/xlink"
   viewBox="0 0 2685.5002 508.01533"
   height="508.01532"
   width="2685.5002"
   id="svg10"
   version="1.1">
  <metadata
     id="metadata16">
    <rdf:RDF>
      <cc:Work
         rdf:about="">
        <dc:format>image/svg+xml</dc:format>
        <dc:type
           rdf:resource="http://purl.org/dc/dcmitype/StillImage" />
        <dc:title></dc:title>
      </cc:Work>
    </rdf:RDF>
  </metadata>
  <defs
     id="defs14">
    <linearGradient
       id="linearGradient4577">
      <stop
         style="stop-color:#2c9f88;stop-opacity:1;"
         offset="0"
         id="stop4573" />
      <stop
         style="stop-color:#1e6e5f;stop-opacity:1"
         offset="1"
         id="stop4575" />
    </linearGradient>
    <linearGradient
       xlink:href="#linearGradient4577"
       id="linearGradient4581"
       gradientUnits="userSpaceOnUse"
       x1="56.268879"
       y1="67.117714"
       x2="91.390045"
       y2="88.403938"
       gradientTransform="translate(-34.835021,-22.427793)" />
    <linearGradient
       xlink:href="#linearGradient4577"
       id="linearGradient4589"
       x1="34.835022"
       y1="68.266663"
       x2="101.6983"
       y2="68.266663"
       gradientUnits="userSpaceOnUse"
       gradientTransform="translate(-34.835021,-22.427793)" />
    <filter
       id="filter58"
       style="color-interpolation-filters:sRGB">
      <feFlood
         id="feFlood48"
         result="flood"
         flood-color="rgb(0,0,0)"
         flood-opacity="0.498039" />
      <feComposite
         id="feComposite50"
         result="composite1"
         operator="in"
         in2="SourceGraphic"
         in="flood" />
      <feGaussianBlur
         id="feGaussianBlur52"
         result="blur"
         stdDeviation="1.4"
         in="composite1" />
      <feOffset
         id="feOffset54"
         result="offset"
         dy="1.6"
         dx="1.6" />
      <feComposite
         id="feComposite56"
         result="composite2"
         operator="over"
         in2="offset"
         in="SourceGraphic" />
    </filter>
  </defs>
  <path
     style="fill:#4d4d4d;fill-opacity:1;stroke-width:1.74648786"
     d="m 1693.5759,432.16991 c -43.6712,-2.30384 -102.9418,-21.75133 -128.9514,-42.3107 l -9.1549,-7.23654 -11.7219,10.7431 c -27.3069,25.02674 -61.5907,36.36246 -81.4594,26.9341 -21.8184,-10.35344 -26.9179,-49.38474 -14.288,-109.3572 7.8735,-37.38639 8.0068,-48.98924 0.6262,-54.48331 -7.0826,-5.27211 -21.2341,-5.05493 -29.2493,0.44885 -14.7583,10.13432 -30.2799,33.87936 -41.2001,63.02783 -4.8052,12.82632 -4.8984,13.77043 -4.4871,45.40868 0.3983,30.66303 0.2158,32.71066 -3.5804,40.16922 -2.9793,5.85339 -6.6746,9.48839 -14.4791,14.24282 -24.8625,15.14596 -36.2653,11.86649 -43.505,-12.51208 -1.5274,-5.14287 -2.777,-15.17299 -2.777,-22.28916 v -12.93851 l -6.887,8.71272 c -15.2022,19.23238 -42.7515,36.14899 -67.3387,41.34924 -14.0786,2.97764 -38.4172,3.36747 -49.5798,0.79412 -19.5332,-4.50321 -36.7101,-16.65988 -45.6725,-32.32426 l -5.5052,-9.62228 -7.6996,7.09729 c -25.9193,23.89148 -62.3847,36.70148 -104.4762,36.70148 -28.14122,0 -47.19875,-6.32837 -62.74044,-20.83401 -4.65364,-4.34339 -10.05518,-11.06008 -12.00346,-14.92599 -1.9484,-3.86594 -3.81461,-7.33236 -4.1475,-7.70319 -0.33278,-0.37082 -5.36162,3.72942 -11.17511,9.11171 -12.63157,11.69464 -36.58172,24.04227 -56.77681,29.27142 -17.42988,4.51321 -55.08871,6.42055 -69.0996,3.49971 -21.47771,-4.47741 -42.35816,-18.44996 -50.49634,-33.79055 l -3.94271,-7.43209 -11.58308,11.36109 c -20.03663,19.65267 -44.94022,30.11231 -71.68919,30.10985 -18.09329,-10e-4 -32.57041,-4.04409 -55.41241,-15.47276 l -15.96871,-7.9897 -10.2286,8.33549 c -29.3736,23.93717 -73.52217,29.05917 -97.94977,11.36393 -13.49118,-9.77299 -20.6297,-32.30602 -16.15017,-50.97881 1.76796,-7.36974 4.09491,-11.16707 11.1919,-18.26406 12.8518,-12.85179 21.84424,-15.60617 50.95073,-15.60617 h 22.89131 l 2.103,-29.69029 c 1.15663,-16.32967 3.67755,-38.72838 5.602,-49.77491 1.92446,-11.04652 3.92473,-22.52001 4.44503,-25.49664 0.87173,-4.9872 0.25159,-5.83929 -7.90031,-10.85523 -18.50891,-11.38863 -28.98477,-23.78554 -26.98226,-31.93016 2.4753,-10.06745 4.52109,-10.09606 29.05928,-0.40637 8.48823,3.35184 15.69186,5.83491 16.00806,5.51793 0.31622,-0.31696 4.43118,-9.67671 9.1444,-20.7994 10.71732,-25.29173 21.87753,-43.31426 36.84415,-59.49927 21.76281,-23.534479 42.85968,-33.431289 70.76573,-33.197098 43.70822,0.366817 66.3017,18.200323 68.77504,54.285568 1.54615,22.5579 -6.59988,43.79499 -23.65865,61.67933 -20.74746,21.75157 -50.45581,33.83825 -93.01536,37.84277 -9.72603,0.91514 -18.01179,1.992 -18.41281,2.39304 -1.028,1.02799 -3.85626,41.39363 -5.71688,81.59261 -0.86696,18.73107 -1.85487,35.16941 -2.19531,36.52961 -0.8788,3.51087 26.26501,16.81335 43.08631,21.11551 31.64994,8.0947 43.57853,3.21605 71.55457,-29.26496 9.5456,-11.08273 11.1637,-14.02397 12.97098,-23.57759 3.22445,-17.04501 8.57928,-32.25815 17.36633,-49.33802 11.0079,-21.39666 35.03328,-45.91296 54.37565,-55.48674 31.01435,-15.35098 61.76904,-15.79014 81.9512,-1.1702 20.37082,14.75664 20.97984,48.46773 1.25521,69.49244 -10.52168,11.21539 -26.208,19.54008 -67.48806,35.81627 l -23.57758,9.29632 -0.50812,11.26744 c -0.63392,14.05784 3.47776,21.07442 16.17996,27.61101 7.77282,3.99997 10.7098,4.46974 27.94378,4.46974 14.30757,0 21.72708,-0.84647 28.86359,-3.29308 13.75493,-4.71551 30.67103,-14.99196 42.79292,-25.99633 10.29087,-9.34219 10.52034,-9.75279 12.53662,-22.42354 10.75787,-67.60367 66.24389,-120.34347 122.41869,-116.3594 16.3048,1.15639 26.9997,5.49657 35.7476,14.50693 8.1842,8.42987 10.8326,15.94649 10.78,30.59482 -0.032,8.95588 -1.1078,13.68801 -4.8477,21.33232 -8.823,18.03367 -23.6703,27.78986 -70.9766,46.63938 -14.8888,5.9325 -28.1523,11.22884 -29.4741,11.76963 -3.0666,1.25448 -1.4868,19.1145 2.3465,26.52725 6.4815,12.53413 22.7527,18.46786 47.108,17.17937 23.6671,-1.25209 45.5652,-11.14875 66.4605,-30.03628 9.6753,-8.74536 9.8487,-9.0742 12.9846,-24.61316 11.1487,-55.24364 51.0458,-100.22774 99.1307,-111.7705 16.0545,-3.85381 33.5015,-3.00109 40.1493,1.96227 9.1551,6.83521 11.3566,11.51811 11.2611,23.95237 -0.1,13.02451 -4.1358,22.96539 -11.7579,28.96089 -6.1103,4.80627 -11.0868,4.61776 -18.3297,-0.69435 -14.4875,-10.62558 -23.4117,-11.03399 -34.6407,-1.58534 -12.582,10.58688 -22.8749,42.81334 -23.3731,73.17755 -0.2836,17.29137 0.084,19.85352 3.6804,25.63678 6.1394,9.87345 17.231,14.54204 34.4272,14.49083 10.2782,-0.0305 15.5853,-0.90877 20.0743,-3.32168 11.5986,-6.23417 23.7913,-16.65551 40.0437,-34.22581 l 16.3148,-17.63758 1.37,-13.42911 c 5.9318,-58.1398 25.3464,-121.33137 58.0519,-188.95115 13.7222,-28.371333 17.7954,-33.183296 28.087,-33.183296 12.1332,0 26.19,24.830366 25.8936,45.738616 -0.2604,18.36251 -5.1515,31.09015 -25.3782,66.03662 -8.939,15.44449 -11.2153,21.16287 -14.4251,36.23963 -2.0961,9.84583 -3.3094,17.86378 -2.696,17.81769 0.6137,-0.0461 4.2591,-4.483 8.1014,-9.85979 17.5272,-24.52708 47.1867,-36.89934 77.3153,-32.25169 24.8081,3.82691 40.6659,15.34052 46.8749,34.03346 4.3259,13.02355 2.3408,38.97977 -5.4994,71.90863 -10.643,44.70048 -11.8226,50.87565 -10.6278,55.63582 0.8712,3.47109 2.2566,4.61799 5.5788,4.61799 7.9212,0 15.1278,-5.3615 40.2412,-29.93781 13.6027,-13.31182 25.4511,-24.2033 26.3293,-24.2033 6.3925,0 7.7635,17.5327 2.5506,32.61786 l -3.1239,9.0403 7.4474,1.87525 c 12.7735,3.21642 12.2899,3.82763 13.3733,-16.89947 3.2429,-62.03196 29.4352,-148.8819 54.5028,-180.72399 7.4294,-9.43726 18.3585,-17.06573 24.4494,-17.06573 5.0489,0 6.5395,8.62772 5.5813,32.31002 -0.8975,22.18381 -3.7768,38.90512 -17.62,102.32537 -4.7069,21.56329 -11.2429,98.74821 -8.5651,101.14462 0.7801,0.69819 8.2174,2.66119 16.5273,4.36224 19.7155,4.03586 46.9991,3.00141 60.6497,-2.29951 28.3757,-11.01911 40.4402,-29.7831 40.3218,-62.71373 -0.098,-27.02755 -5.7204,-46.58849 -16.7537,-58.27959 -3.949,-4.18452 -4.9567,-4.42393 -13.1611,-3.127 -10.6857,1.68916 -32.6425,-0.82258 -39.8719,-4.56107 -10.4129,-5.38456 -14.215,-18.31961 -7.5499,-25.68428 7.0809,-7.82449 12.5233,-9.2317 36.3553,-9.40024 l 22.7044,-0.1605 3.9758,-5.84825 c 6.8344,-10.05286 9.5839,-23.04151 8.8334,-41.72731 -0.5799,-14.43663 -1.3511,-17.9939 -5.3988,-24.90061 -2.5971,-4.43185 -7.0829,-10.04449 -9.9685,-12.47252 -12.6691,-10.66021 -41.4032,-16.00115 -71.5553,-13.30035 -23.0367,2.06338 -34.1717,5.30861 -59.493,17.33816 -30.1254,14.31213 -41.9301,16.59892 -41.9042,8.11761 0.025,-8.1598 18.1611,-28.11768 36.8272,-40.52694 34.5864,-22.993 73.2857,-31.796647 118.5987,-26.979894 49.4809,5.259818 80.8794,22.169384 95.187,51.262574 11.21,22.79495 11.5336,51.85279 0.8117,72.86997 -4.9304,9.66416 -19.6627,25.2106 -29.1708,30.78271 -4.096,2.40035 -7.4472,4.96424 -7.4472,5.69754 0,0.73329 4.4992,4.32042 9.9978,7.97139 22.5665,14.98338 36.6289,34.66392 41.6313,58.26339 11.4658,54.09286 -16.9351,97.88752 -75.2067,115.96991 -19.4883,6.04743 -49.9704,9.79771 -70.7327,8.70243 z M 545.43572,392.40998 c 3.47013,-2.2256 9.43011,-12.47945 9.43011,-16.22402 0,-2.91879 -13.56534,-7.34827 -22.50415,-7.34827 -11.55661,0 -17.66507,4.78162 -17.66507,13.82798 0,6.44421 2.81408,10.6156 8.73244,12.94437 3.87937,1.52646 17.79135,-0.49653 22.00667,-3.20006 z M 842.16305,284.89567 c 14.58776,-9.76658 17.95157,-13.28587 20.90224,-21.86898 3.31784,-9.65109 1.18379,-15.09858 -7.04062,-17.97243 -5.96774,-2.08524 -7.72631,-2.04533 -13.31675,0.30228 -11.61366,4.87699 -21.50061,23.59382 -25.08335,47.48517 l -1.2697,8.46709 6.79137,-4.11409 c 3.7353,-2.26275 12.29288,-7.79734 19.01681,-12.29904 z m 181.29485,6.76407 c 27.1631,-17.20471 32.6782,-23.11267 32.623,-34.94715 -0.033,-7.30363 -1.4305,-9.44158 -7.7346,-11.83838 -14.9474,-5.683 -29.7776,8.91436 -36.4629,35.89055 -4.2826,17.28107 -4.7848,19.95991 -3.7407,19.95991 0.5517,0 7.4436,-4.07921 15.3152,-9.06493 z M 668.19569,189.58659 c 16.4158,-5.43057 26.91383,-11.56681 37.06159,-21.66304 9.48589,-9.43771 12.85234,-18.06364 11.24161,-28.80469 -1.48914,-9.93027 -5.42178,-14.57534 -14.05483,-16.60104 -25.15285,-5.90194 -45.95397,12.50808 -59.20561,52.39991 -3.45823,10.41045 -6.28768,19.47198 -6.28768,20.13676 0,2.09343 17.80927,-1.02321 31.24492,-5.4679 z m 1780.39721,232.5219 c -5.8181,-4.07506 -9.6059,-16.63034 -10.7965,-35.78581 l -1.0901,-17.53541 -6.1126,7.85341 c -8.3638,10.74546 -27.6014,25.95685 -40.6825,32.16812 -30.2663,14.37108 -65.2614,16.09971 -91.4512,4.51733 -11.9567,-5.28778 -26.7362,-19.26141 -32.1653,-30.41108 -2.3302,-4.7862 -4.8655,-8.73273 -5.6339,-8.77004 -0.7679,-0.0375 -3.5893,1.06609 -6.2692,2.45203 -9.0372,4.67327 -26.1324,6.57278 -41.6465,4.62751 l -14.3429,-1.79848 -9.0887,8.71389 c -23.8089,22.82796 -48.8789,33.25641 -80.1053,33.32174 -19.8089,0.0413 -36.2555,-3.45893 -50.8373,-10.81983 -12.0248,-6.07007 -25.8545,-18.19549 -31.5317,-27.64631 -2.0811,-3.46428 -4.0392,-6.62509 -4.3513,-7.02405 -0.3123,-0.39898 -5.8737,4.39712 -12.3587,10.65794 -22.6377,21.8547 -41.3372,31.03567 -66.0187,32.41345 -48.0422,2.68182 -86.6729,-23.24817 -96.7213,-64.922 -2.5013,-10.37417 -2.573,-47.1896 -0.129,-66.49488 12.0793,-95.43286 52.5011,-171.83907 104.7962,-198.088237 14.2709,-7.163053 25.3726,-9.743819 41.9158,-9.743819 13.0382,0 15.8364,0.582746 22.9891,4.787378 20.7336,12.188547 23.8912,38.736688 8.3621,70.311608 -9.3786,19.06941 -21.9833,35.35833 -60.7307,78.4816 -18.1793,20.23261 -38.2611,43.16602 -44.626,50.96309 l -11.5724,14.17649 v 16.50667 c 0,21.99882 3.2902,32.74817 12.9938,42.45173 5.8433,5.84348 9.6657,8.00249 17.121,9.67089 19.7457,4.41893 44.8984,-4.32534 62.7482,-21.81425 9.6881,-9.49211 9.9283,-9.9624 10.9646,-21.47847 1.6845,-18.72101 7.3148,-38.4087 16.1023,-56.30482 6.768,-13.78346 10.6898,-19.13216 23.2014,-31.64382 12.1384,-12.13829 17.9214,-16.44175 29.8365,-22.20269 21.6797,-10.48231 34.7111,-13.05403 61.0615,-12.05037 25.0165,0.95287 41.3485,5.3686 53.1504,14.37031 14.5149,11.07073 9.7319,14.6329 -22.3817,16.66927 -26.8561,1.70299 -41.2608,5.62775 -56.2776,15.33357 -18.637,12.04562 -31.7864,31.53186 -36.5991,54.23593 -6.6953,31.58715 0.268,54.61235 20.0291,66.22953 7.4027,4.35202 9.5064,4.71629 27.2338,4.71629 16.2,0 20.5378,-0.61213 27.6745,-3.90537 l 8.463,-3.90537 -9.6832,-8.84992 c -22.1106,-20.2077 -29.8934,-54.67447 -17.8876,-79.21375 8.8517,-18.09213 24.3683,-29.36018 45.1791,-32.80861 20.6589,-3.42332 38.277,5.07186 46.879,22.60441 3.4576,7.04744 4.0645,10.99626 4.0898,26.61343 0.027,17.54012 -1.5348,25.39019 -8.8344,44.37331 -1.1931,3.10248 -0.6031,3.26087 8.6077,2.31026 11.6043,-1.19768 25.5508,-7.62888 27.3572,-12.61541 0.6982,-1.92753 2.9405,-10.57789 4.9826,-19.22301 14.4112,-61.00442 65.2037,-107.40898 117.5655,-107.40898 22.2175,0 31.7792,8.51343 31.5022,28.04876 -0.2596,18.29489 -9.2909,31.91397 -21.1638,31.91397 -2.8673,0 -8.2286,-2.59861 -13.212,-6.4038 -12.1181,-9.25291 -21.5538,-8.247 -32.6676,3.4826 -13.594,14.3472 -25.2996,60.56135 -21.5955,85.26078 2.4236,16.16333 17.673,26.29162 39.3927,26.16418 17.1215,-0.10043 26.0207,-5.56414 54.1412,-33.23956 l 23.5774,-23.20451 5.7193,-34.88477 c 14.1348,-86.21339 41.0992,-166.67226 64.5604,-192.640984 5.0987,-5.643597 7.2178,-6.750839 12.9208,-6.750839 5.5887,0 8.2645,1.329974 14.805,7.358617 7.6504,7.052002 16.4277,21.684016 18.7154,31.199026 1.7019,7.07959 -1.7389,23.76507 -7.3925,35.84655 -2.8445,6.07853 -11.9914,21.09976 -20.3266,33.38051 l -15.1548,22.32865 -2.5133,18.96279 c -1.3821,10.42954 -2.2344,19.79938 -1.8935,20.82191 0.341,1.0225 3.05,-2.40227 6.0203,-7.61063 14.4184,-25.28238 39.2943,-40.03325 67.5124,-40.03325 37.6574,0 60.3578,20.91415 58.4498,53.85044 -0.8551,14.75743 -5.7834,25.08309 -17.6227,36.9226 -11.4775,11.47754 -32.3157,21.81109 -49.7571,24.67464 -7.5077,1.23266 -12.6619,2.9298 -12.6619,4.16924 0,1.14969 1.5967,6.73144 3.5483,12.40388 8.8358,25.68194 24.2474,37.81275 44.5106,35.03538 15.3312,-2.10138 24.6378,-9.29261 54.6024,-42.19154 l 12.7173,-13.96268 3.4379,4.12307 c 4.5469,5.45361 4.4712,16.48639 -0.209,30.42516 -9.8194,29.24477 -35.0087,55.6484 -64.7883,67.91199 -13.3542,5.49931 -37.8324,5.64393 -47.7064,0.28187 -19.2029,-10.42797 -37.4627,-36.97712 -55.0473,-80.03775 -3.1383,-7.68455 -6.2814,-14.62043 -6.9848,-15.41307 -1.9487,-2.19606 -3.232,10.60579 -4.4337,44.23011 -0.6005,16.80994 -1.8416,33.52856 -2.7576,37.15249 -3.9558,15.64946 -39.0464,30.16719 -51.6235,21.35777 z M 2200.9641,310.56036 c 2.9698,-13.02802 2.336,-25.72848 -1.4291,-28.63314 -4.3858,-3.3835 -8.1654,-3.62988 -11.7041,-0.76296 -8.0176,6.49537 -7.4873,25.53468 1.12,40.22194 4.2155,7.19351 4.8074,7.60121 6.8926,4.74928 1.2548,-1.71587 3.5589,-8.72467 5.1206,-15.57512 z m 336.8989,-7.51744 c 29.7354,-7.38487 47.63,-25.52635 42.7199,-43.30923 -2.1034,-7.61782 -7.4045,-11.40364 -15.9678,-11.40364 -9.4976,0 -18.4889,5.21263 -29.3746,17.02976 -7.9792,8.66206 -26.055,37.27994 -26.055,41.2509 0,1.6092 15.694,-0.34334 28.6775,-3.56779 z m -612.5399,-73.54666 c 4.9886,-7.41192 18.5457,-25.26502 30.1266,-39.67355 24.1137,-30.00112 31.5361,-42.93305 31.5361,-54.94402 0,-9.33928 -2.1928,-12.29576 -9.1191,-12.29576 -20.1106,0 -48.0558,46.88692 -59.8534,100.42305 -1.4817,6.72398 -3.0883,13.99373 -3.5704,16.15501 -1.5443,6.92573 1.5849,4.14623 10.8802,-9.66473 z"
     id="path20" />
  <g
     style="filter:url(#filter58)"
     transform="matrix(4.6177632,0,0,4.6177632,30.875877,42.334608)"
     id="g46">
    <path
       style="opacity:1;fill:url(#linearGradient4581);fill-opacity:1;stroke:url(#linearGradient4589);stroke-width:0;stroke-linecap:butt;stroke-linejoin:miter;stroke-miterlimit:4;stroke-dasharray:none;stroke-opacity:0.92395438"
       d="M 0.2337905,7.4816396 5.0029084e-7,55.056642 C 3.4754205,69.535633 18.219321,85.224547 33.431639,91.677737 48.643966,85.224547 63.387867,69.535636 66.863279,55.056642 L 66.629489,7.4816396 C 56.303876,6.5853246 43.640362,5.4552196 33.431641,5.6691043e-7 23.222921,5.4552196 10.559411,6.5853246 0.2337905,7.4816396 Z"
       id="path24-3" />
    <path
       style="fill:#2c9f88;fill-opacity:0;stroke:#ffffff;stroke-width:2.01749802;stroke-linecap:butt;stroke-linejoin:miter;stroke-miterlimit:4;stroke-dasharray:none;stroke-opacity:0.98479088"
       d="M 2.7099905,10.366666 2.4936375,54.393091 C 5.7098285,67.792107 19.353997,82.310797 33.431639,88.282647 47.509292,82.310797 61.153459,67.792107 64.369646,54.393091 L 64.153293,10.366666 C 54.597857,9.5372056 42.878904,8.4913966 33.431643,3.4430756 23.984381,8.4913966 12.265432,9.5372056 2.7099905,10.366666 Z"
       id="path24-3-8" />
    <path
       id="path4605"
       d="m 19.341188,63.58196 c -1.727042,-0.511523 -2.943961,-1.566586 -3.655295,-3.169136 -0.328116,-0.739204 -0.633226,-1.037699 -0.633226,-2.609507 0,-1.567426 0.304089,-1.752205 0.613576,-2.379175 0.740097,-1.499348 2.392385,-2.638723 4.453826,-3.071244 0.775931,-0.162808 1.638903,-0.207026 3.371848,-0.172778 l 2.329022,0.04601 0.0016,-1.459955 c 0.0029,-2.575749 0.558094,-7.499078 1.17324,-10.40258 0.118524,-0.55943 0.215498,-1.123219 0.215498,-1.252866 0,-0.146043 -0.415684,-0.484825 -1.092685,-0.890537 -1.35235,-0.810433 -2.416779,-1.75423 -2.890917,-2.563287 -0.28991,-0.494685 -0.347551,-0.738849 -0.291604,-1.235215 0.143312,-1.271456 0.622002,-1.322715 3.166992,-0.339115 0.991626,0.383245 1.937231,0.711738 2.101341,0.729975 0.261466,0.02905 0.394849,-0.207686 1.078029,-1.913442 2.611009,-6.519102 6.406888,-10.569836 10.82618,-11.553036 1.286504,-0.28622 4.382315,-0.208315 5.664957,0.142556 3.31824,0.907717 4.990923,2.956962 5.171218,6.335399 0.266223,4.988516 -3.108273,9.223512 -8.794575,11.037211 -1.93176,0.616159 -3.261261,0.851753 -6.596326,1.168944 l -1.042825,0.09918 -0.167495,1.598993 c -0.207294,1.978963 -0.45695,6.896163 -0.458868,9.037819 -0.0013,1.396169 -0.124497,2.715119 -0.345583,3.698366 -0.05757,0.256026 0.188235,0.414031 2.00461,1.288562 2.254476,1.085478 3.623848,1.503624 5.361628,1.637197 2.442069,0.187711 3.765774,-0.669389 7.040426,-4.558711 2.372106,-2.817371 2.940457,-3.211897 3.385952,-2.350406 0.281648,0.544648 0.277141,2.287662 -0.0088,3.393398 -0.224394,0.867808 -0.94921,2.437784 -1.482006,3.210086 -2.351577,3.408641 -5.632348,5.464521 -9.473596,5.936579 -2.549059,0.313263 -4.496387,-0.129807 -7.83438,-1.78253 l -2.117128,-1.048244 -0.889861,0.814816 c -1.088879,0.997064 -2.400146,1.744296 -4.052738,2.30947 -1.130299,0.38655 -1.446482,0.432347 -3.267518,0.473218 -1.635252,0.03666 -2.176403,-0.0022 -2.864531,-0.206034 z M 23.610165,59.507 c 0.259951,-0.08688 0.640164,-0.313227 0.844917,-0.502995 0.403808,-0.374261 1.00822,-1.632916 0.882115,-1.836964 -0.0428,-0.06927 -0.436396,-0.264467 -0.874667,-0.433824 -1.088438,-0.420609 -2.558713,-0.444308 -3.226497,-0.05202 -1.058094,0.621599 -1.060195,2.212391 -0.0036,2.740208 0.556945,0.278225 1.68035,0.318662 2.377749,0.08558 z M 39.02824,34.645167 c 1.911522,-0.640416 3.22631,-1.417903 4.469828,-2.643178 0.918341,-0.904868 1.098865,-1.163751 1.304313,-1.870462 0.430863,-1.482119 -0.02942,-2.894564 -1.114446,-3.419815 -0.763062,-0.369391 -2.177642,-0.3741 -3.134726,-0.01048 -1.740369,0.661289 -3.19009,2.551633 -4.273338,5.57216 -0.477145,1.330467 -0.86504,2.654844 -0.86504,2.953457 0,0.292426 1.933219,-0.01877 3.613409,-0.581722 z"
       style="fill:#ffffff;stroke-width:0.13904329" />
  </g>
</svg>
